<?xml version="1.0" encoding="UTF-8"?>
<svg version="1.1" xmlns="http://www.w3.org/2000/svg" width="95" height="95">
<path d="M0 0 C3.7499837 -0.02905924 7.49993837 -0.04681874 11.25 -0.0625 C12.84521484 -0.07506836 12.84521484 -0.07506836 14.47265625 -0.08789062 C15.49746094 -0.09111328 16.52226563 -0.09433594 17.578125 -0.09765625 C18.99206543 -0.10551147 18.99206543 -0.10551147 20.43457031 -0.11352539 C22.79343767 -0.0091408 24.73240378 0.39416968 27 1 C30.09037441 1.08944272 30.09037441 1.08944272 33.4375 0.375 C36.95056078 0.00520413 38.15767128 0.06721647 41 2 C41 2.66 41 3.32 41 4 C40.34 4 39.68 4 39 4 C39 3.34 39 2.68 39 2 C37.02 2.66 35.04 3.32 33 4 C35.64 4.33 38.28 4.66 41 5 C41 6.98 41 8.96 41 11 C41.639375 11.226875 42.27875 11.45375 42.9375 11.6875 C45 13 45 13 45.75 15.625 C45.8325 16.40875 45.915 17.1925 46 18 C47.98 18.33 49.96 18.66 52 19 C51.34 19.66 50.68 20.32 50 21 C49.34 20.67 48.68 20.34 48 20 C48 20.66 48 21.32 48 22 C56.25 22 64.5 22 73 22 C72.01 23.485 72.01 23.485 71 25 C70.45472656 24.83628906 69.90945312 24.67257813 69.34765625 24.50390625 C66.6471499 23.92426346 64.19776972 23.90370078 61.4375 23.9375 C60.48746094 23.94652344 59.53742188 23.95554687 58.55859375 23.96484375 C57.71425781 23.97644531 56.86992188 23.98804687 56 24 C55.01 24 54.02 24 53 24 C51.66018514 24.3062434 50.32488113 24.63451555 49 25 C49.66 25.33 50.32 25.66 51 26 C50.505 27.485 50.505 27.485 50 29 C49.34 28.67 48.68 28.34 48 28 C46.03810791 31.6678852 44.60698743 34.87248551 44 39 C42.515 38.505 42.515 38.505 41 38 C38.36195411 38.39397335 38.36195411 38.39397335 36 39 C36.33 39.66 36.66 40.32 37 41 C36.34 41.66 35.68 42.32 35 43 C32.5 42.625 32.5 42.625 30 42 C29.34 42 28.68 42 28 42 C28 42.66 28 43.32 28 44 C28.99 44.495 28.99 44.495 30 45 C29.505 45.99 29.505 45.99 29 47 C38.9 46.505 38.9 46.505 49 46 C49.33 45.01 49.66 44.02 50 43 C50.33 43 50.66 43 51 43 C51 44.98 51 46.96 51 49 C48.69 49 46.38 49 44 49 C45.134375 49.12375 46.26875 49.2475 47.4375 49.375 C48.613125 49.58125 49.78875 49.7875 51 50 C51.33 50.66 51.66 51.32 52 52 C50.41773035 52.19627391 48.83410729 52.38165538 47.25 52.5625 C45.92742187 52.71912109 45.92742187 52.71912109 44.578125 52.87890625 C42 53 42 53 39.984375 52.46484375 C37.97909674 51.84956835 37.97909674 51.84956835 35.86328125 52.43359375 C31.64296071 53.2684457 27.47753056 53.10408866 23.1875 53.0625 C21.86202148 53.05573242 21.86202148 53.05573242 20.50976562 53.04882812 C18.33981441 53.03709866 16.16989828 53.01916495 14 53 C14 52.34 14 51.68 14 51 C12.39125 51.2475 12.39125 51.2475 10.75 51.5 C7 52 7 52 3 52 C3 51.34 3 50.68 3 50 C5.31 50 7.62 50 10 50 C10 49.01 10 48.02 10 47 C13.63 47 17.26 47 21 47 C21.33 45.68 21.66 44.36 22 43 C20.35 42.67 18.7 42.34 17 42 C17 41.34 17 40.68 17 40 C17.99 40 18.98 40 20 40 C18.86111328 39.90912109 18.86111328 39.90912109 17.69921875 39.81640625 C16.70535156 39.73261719 15.71148437 39.64882813 14.6875 39.5625 C13.70136719 39.48128906 12.71523438 39.40007813 11.69921875 39.31640625 C9 39 9 39 6 38 C6.33 37.01 6.66 36.02 7 35 C6.360625 34.731875 5.72125 34.46375 5.0625 34.1875 C3 33 3 33 2 30 C2.66 29.01 3.32 28.02 4 27 C2.02 27.99 2.02 27.99 0 29 C0 28.01 0 27.02 0 26 C0.99 26 1.98 26 3 26 C1.16715557 24.87483915 1.16715557 24.87483915 -1 24 C-1.99 24.33 -2.98 24.66 -4 25 C-4 24.34 -4 23.68 -4 23 C-7.3943115 23.47520361 -10.76340274 23.95268055 -14.125 24.625 C-17.06001554 25.00782811 -19.15708136 24.75253729 -22 24 C-22 23.34 -22 22.68 -22 22 C-18.04 22 -14.08 22 -10 22 C-10 21.34 -10 20.68 -10 20 C-11.32 20.33 -12.64 20.66 -14 21 C-14.33 20.34 -14.66 19.68 -15 19 C-12.69 19 -10.38 19 -8 19 C-8.33 19.99 -8.66 20.98 -9 22 C-6.03 22 -3.06 22 0 22 C0 21.01 0 20.02 0 19 C1.32 19 2.64 19 4 19 C3.34 18.34 2.68 17.68 2 17 C-0.42938689 17.35232207 -0.42938689 17.35232207 -3 18 C-7 18 -7 18 -8.875 17.4375 C-11.12995485 16.83917875 -11.12995485 16.83917875 -13.9375 17.5 C-17.01210871 18.00197693 -19.01840312 17.78924623 -22 17 C-22 16.34 -22 15.68 -22 15 C-12.76 14.67 -3.52 14.34 6 14 C6.33 13.01 6.66 12.02 7 11 C3.30458414 10.04975021 0.69541586 10.04975021 -3 11 C-3 10.34 -3 9.68 -3 9 C-4.98 9.99 -4.98 9.99 -7 11 C-7 10.34 -7 9.68 -7 9 C-7.66 9 -8.32 9 -9 9 C-9.33 9.66 -9.66 10.32 -10 11 C-10.53625 10.835 -11.0725 10.67 -11.625 10.5 C-14.10533398 9.88459283 -14.10533398 9.88459283 -17.125 10.0625 C-20 10 -20 10 -22 8 C-20.35 8 -18.7 8 -17 8 C-17.33 7.01 -17.66 6.02 -18 5 C-17.01 5.33 -16.02 5.66 -15 6 C-15.33 6.66 -15.66 7.32 -16 8 C-15.34 8 -14.68 8 -14 8 C-13.67 7.01 -13.34 6.02 -13 5 C-13 5.99 -13 6.98 -13 8 C-12.01 8 -11.02 8 -10 8 C-10 7.34 -10 6.68 -10 6 C-10.66 5.67 -11.32 5.34 -12 5 C-11.01 5 -10.02 5 -9 5 C-9 5.99 -9 6.98 -9 8 C-7.329375 7.7215625 -7.329375 7.7215625 -5.625 7.4375 C-2 7 -2 7 0 8 C0 7.01 0 6.02 0 5 C0.66 5.33 1.32 5.66 2 6 C1.67 6.66 1.34 7.32 1 8 C1.99 8 2.98 8 4 8 C3.67 7.01 3.34 6.02 3 5 C3.99 5 4.98 5 6 5 C6 5.66 6 6.32 6 7 C8.64 7.33 11.28 7.66 14 8 C14 6.35 14 4.7 14 3 C11.525 2.505 11.525 2.505 9 2 C8.67 2.66 8.34 3.32 8 4 C5.16032769 4 2.76264289 3.59732819 0 3 C0 2.01 0 1.02 0 0 Z M16 2 C16 2.99 16 3.98 16 5 C17.65 5 19.3 5 21 5 C21 4.01 21 3.02 21 2 C19.68 2 18.36 2 17 2 C16.67 2 16.34 2 16 2 Z M23 12 C24 14 24 14 24 14 Z M34 15 C34 16.65 34 18.3 34 20 C34.33 20 34.66 20 35 20 C35 18.35 35 16.7 35 15 C34.67 15 34.34 15 34 15 Z M9 16 C10 19 10 19 10 19 Z M23 16 C24 18 24 18 24 18 Z M1 20 C1.33 20.99 1.66 21.98 2 23 C2.66 22.01 3.32 21.02 4 20 C3.01 20 2.02 20 1 20 Z M10 28 C9.01 28.66 8.02 29.32 7 30 C8.32 30 9.64 30 11 30 C10.67 29.34 10.34 28.68 10 28 Z M29 29 C28.67 30.32 28.34 31.64 28 33 C28.99 33.33 29.98 33.66 31 34 C31.33 32.35 31.66 30.7 32 29 C31.01 29 30.02 29 29 29 Z M20 31 C19.67 31.66 19.34 32.32 19 33 C19.99 32.67 20.98 32.34 22 32 C21.34 31.67 20.68 31.34 20 31 Z M38 33 C37.67 33.99 37.34 34.98 37 36 C37.66 36 38.32 36 39 36 C38.67 35.01 38.34 34.02 38 33 Z M12 34 C12 34.66 12 35.32 12 36 C12.66 36 13.32 36 14 36 C14 35.34 14 34.68 14 34 C13.34 34 12.68 34 12 34 Z M12 48 C11.67 48.66 11.34 49.32 11 50 C11.66 50 12.32 50 13 50 C12.67 49.34 12.34 48.68 12 48 Z M37 48 C37.33 48.66 37.66 49.32 38 50 C38.66 49.67 39.32 49.34 40 49 C39.01 48.67 38.02 48.34 37 48 Z " fill="#D5681C" transform="translate(22,0)"/>
<path d="M0 0 C0.99 0.33 1.98 0.66 3 1 C2.67 2.65 2.34 4.3 2 6 C0.54176788 6.0270043 -0.91660675 6.04639787 -2.375 6.0625 C-3.18710937 6.07410156 -3.99921875 6.08570313 -4.8359375 6.09765625 C-7 6 -7 6 -9 5 C-9 5.66 -9 6.32 -9 7 C-7.06166004 6.91284983 -5.1242571 6.80467036 -3.1875 6.6875 C-2.10855469 6.62949219 -1.02960937 6.57148437 0.08203125 6.51171875 C3.17497517 5.96931493 4.13022903 5.44710376 6 3 C7.32 3.66 8.64 4.32 10 5 C9.67 5.66 9.34 6.32 9 7 C10.32 7.33 11.64 7.66 13 8 C12.67 8.33 12.34 8.66 12 9 C12.99 9.33 13.98 9.66 15 10 C14.505 8.515 14.505 8.515 14 7 C15.32 7 16.64 7 18 7 C18 6.34 18 5.68 18 5 C15.69 5.33 13.38 5.66 11 6 C11 5.34 11 4.68 11 4 C18.59 4 26.18 4 34 4 C34 7 34 7 33 10 C33.66 9.67 34.32 9.34 35 9 C35 8.34 35 7.68 35 7 C36.32 6.67 37.64 6.34 39 6 C37.68 5.67 36.36 5.34 35 5 C35 4.67 35 4.34 35 4 C36.6026782 3.89175157 38.20745748 3.81429355 39.8125 3.75 C40.70582031 3.70359375 41.59914063 3.6571875 42.51953125 3.609375 C45 4 45 4 46.82421875 6.015625 C47.21222656 6.67046875 47.60023437 7.3253125 48 8 C47.67 8.66 47.34 9.32 47 10 C48.65 10 50.3 10 52 10 C51.67 11.32 51.34 12.64 51 14 C51.66 14 52.32 14 53 14 C53 10.7 53 7.4 53 4 C55.475 3.505 55.475 3.505 58 3 C59.00926479 7.15626368 59.10239579 11.04365094 59.0625 15.3125 C59.05347656 16.56675781 59.04445313 17.82101563 59.03515625 19.11328125 C59.02355469 20.06589844 59.01195313 21.01851562 59 22 C58.38125 22.268125 57.7625 22.53625 57.125 22.8125 C54.7004767 23.95556848 54.7004767 23.95556848 53 27 C53 26.34 53 25.68 53 25 C52.21625 25.33 51.4325 25.66 50.625 26 C48 27 48 27 46 27 C46 26.34 46 25.68 46 25 C45.443125 25.350625 44.88625 25.70125 44.3125 26.0625 C41.46113217 27.21845993 39.91482778 26.80967438 37 26 C37.495 27.485 37.495 27.485 38 29 C37.505 30.485 37.505 30.485 37 32 C37.38932856 34.14255793 37.38932856 34.14255793 38 36 C36.66961551 36.3449145 35.33542939 36.67516582 34 37 C33.175 37.20625 32.35 37.4125 31.5 37.625 C28.95475041 38.00678744 27.41657419 37.80552473 25 37 C25 36.01 25 35.02 25 34 C23.84188612 35.05270463 23.84188612 35.05270463 23 37 C19.2500163 37.02905924 15.50006163 37.04681874 11.75 37.0625 C10.15478516 37.07506836 10.15478516 37.07506836 8.52734375 37.08789062 C7.50253906 37.09111328 6.47773437 37.09433594 5.421875 37.09765625 C4.47924805 37.10289307 3.53662109 37.10812988 2.56542969 37.11352539 C0.21876563 37.00968082 -1.75644478 36.66706529 -4 36 C-4.33 37.65 -4.66 39.3 -5 41 C-5.66 41 -6.32 41 -7 41 C-7.33 39.68 -7.66 38.36 -8 37 C-9.98 37 -11.96 37 -14 37 C-13.67 36.01 -13.34 35.02 -13 34 C-15.64 34 -18.28 34 -21 34 C-21 33.34 -21 32.68 -21 32 C-18.69 32 -16.38 32 -14 32 C-14.33 31.01 -14.66 30.02 -15 29 C-15.02723467 26.2492984 -14.76358425 23.64670933 -14 21 C-12 19.625 -12 19.625 -10 19 C-9.67 18.34 -9.34 17.68 -9 17 C-13.12973628 17.56739868 -13.12973628 17.56739868 -17 19 C-17 19.66 -17 20.32 -17 21 C-16.34 21.33 -15.68 21.66 -15 22 C-15.66 22.33 -16.32 22.66 -17 23 C-17.99 22.67 -18.98 22.34 -20 22 C-20 22.66 -20 23.32 -20 24 C-19.34 24 -18.68 24 -18 24 C-19 26 -19 26 -21 27 C-21.66 25.68 -22.32 24.36 -23 23 C-25.64 23 -28.28 23 -31 23 C-31 22.34 -31 21.68 -31 21 C-30.34 20.67 -29.68 20.34 -29 20 C-29.495 19.236875 -29.99 18.47375 -30.5 17.6875 C-32 15 -32 15 -32 12 C-33.32 12 -34.64 12 -36 12 C-36 10 -36 10 -35 9 C-35.33 8.01 -35.66 7.02 -36 6 C-36 5.34 -36 4.68 -36 4 C-32.7 4 -29.4 4 -26 4 C-26.66 4.66 -27.32 5.32 -28 6 C-28.66 5.67 -29.32 5.34 -30 5 C-30 5.66 -30 6.32 -30 7 C-28.35 7 -26.7 7 -25 7 C-25 8 -25 9 -25 10 C-24.67 9.01 -24.34 8.02 -24 7 C-22.75 5.3125 -22.75 5.3125 -21 4 C-18.375 3.75 -18.375 3.75 -16 4 C-15.67 4.33 -15.34 4.66 -15 5 C-15 4.67 -15 4.34 -15 4 C-10.05 3.67 -5.1 3.34 0 3 C0 2.01 0 1.02 0 0 Z M-19 8 C-19 8.66 -19 9.32 -19 10 C-18.01 9.67 -17.02 9.34 -16 9 C-16.99 8.67 -17.98 8.34 -19 8 Z M-5 8 C-5.66 8.66 -6.32 9.32 -7 10 C-6.34 10 -5.68 10 -5 10 C-5 11.65 -5 13.3 -5 15 C-3.35 14.67 -1.7 14.34 0 14 C0.33 12.35 0.66 10.7 1 9 C-1.07553648 8.4465236 -2.84365964 8 -5 8 Z M21 10 C23.64 10 26.28 10 29 10 C28.67 9.34 28.34 8.68 28 8 C24.04542152 7.65176193 24.04542152 7.65176193 21 10 Z M-19 11 C-19.99 12.485 -19.99 12.485 -21 14 C-20.01 14 -19.02 14 -18 14 C-18.33 13.01 -18.66 12.02 -19 11 Z M13 11 C13 11.99 13 12.98 13 14 C13.66 14 14.32 14 15 14 C14.67 13.01 14.34 12.02 14 11 C13.67 11 13.34 11 13 11 Z M34 11 C33.06576355 14.01031744 32.95550089 14.86650268 34 18 C34.66 16.35 35.32 14.7 36 13 C35.34 12.34 34.68 11.68 34 11 Z M41 11 C40.67 11.99 40.34 12.98 40 14 C41.32 13.67 42.64 13.34 44 13 C43.01 12.34 42.02 11.68 41 11 Z M-27 12 C-26.34 12.66 -25.68 13.32 -25 14 C-25 13.34 -25 12.68 -25 12 C-25.66 12 -26.32 12 -27 12 Z M-13 12 C-13.33 12.66 -13.66 13.32 -14 14 C-13.01 14 -12.02 14 -11 14 C-11 13.34 -11 12.68 -11 12 C-11.66 12 -12.32 12 -13 12 Z M4 12 C4 12.66 4 13.32 4 14 C4.99 14 5.98 14 7 14 C7 13.34 7 12.68 7 12 C6.01 12 5.02 12 4 12 Z M-22 15 C-22.33 15.99 -22.66 16.98 -23 18 C-22.67 18.66 -22.34 19.32 -22 20 C-22.99 20.33 -23.98 20.66 -25 21 C-23.68 21.33 -22.36 21.66 -21 22 C-20.67 20.02 -20.34 18.04 -20 16 C-20.66 15.67 -21.32 15.34 -22 15 Z M-4 15 C-4 15.66 -4 16.32 -4 17 C-3.34 16.67 -2.68 16.34 -2 16 C-2.66 15.67 -3.32 15.34 -4 15 Z M23 15 C23 15.99 23 16.98 23 18 C24.65 17.67 26.3 17.34 28 17 C27.67 16.34 27.34 15.68 27 15 C25.68 15 24.36 15 23 15 Z M51 15 C49.73688259 17.01461763 49.73688259 17.01461763 50.5 19.5 C51 22 51 22 50 24 C50.99 24 51.98 24 53 24 C53 21.03 53 18.06 53 15 C52.34 15 51.68 15 51 15 Z M2 17 C2 17.99 2 18.98 2 20 C1.01 20.495 1.01 20.495 0 21 C4.61507774 22.04214691 4.61507774 22.04214691 9 21 C9 23.31 9 25.62 9 28 C9.33 26.68 9.66 25.36 10 24 C11.32 23.67 12.64 23.34 14 23 C13.01 22.67 12.02 22.34 11 22 C9 19 9 19 9 17 C6.69 17 4.38 17 2 17 Z M16 17 C15.67 18.32 15.34 19.64 15 21 C17.39719432 21.67958603 17.39719432 21.67958603 20 22 C20.66 21.34 21.32 20.68 22 20 C20.02 19.01 18.04 18.02 16 17 Z M39 17 C38.34 18.32 37.68 19.64 37 21 C38.27875 21.20625 39.5575 21.4125 40.875 21.625 C41.95394531 21.79902344 41.95394531 21.79902344 43.0546875 21.9765625 C44.01761719 21.98816406 44.01761719 21.98816406 45 22 C45.66 21.34 46.32 20.68 47 20 C46.34 19.34 45.68 18.68 45 18 C44.01 18.495 44.01 18.495 43 19 C42.67 18.34 42.34 17.68 42 17 C41.01 17 40.02 17 39 17 Z M31 19 C30.67 19.66 30.34 20.32 30 21 C30.99 20.67 31.98 20.34 33 20 C32.34 19.67 31.68 19.34 31 19 Z M-4 21 C-4 21.66 -4 22.32 -4 23 C-4.99 23.495 -4.99 23.495 -6 24 C-5.01 24 -4.02 24 -3 24 C-3.33 23.01 -3.66 22.02 -4 21 Z M34 21 C33.67 21.99 33.34 22.98 33 24 C33.99 23.67 34.98 23.34 36 23 C35.34 22.34 34.68 21.68 34 21 Z M47 21 C47 21.99 47 22.98 47 24 C47.66 24 48.32 24 49 24 C48.67 23.01 48.34 22.02 48 21 C47.67 21 47.34 21 47 21 Z M-12 22 C-12 22.99 -12 23.98 -12 25 C-11.34 24.67 -10.68 24.34 -10 24 C-10 23.34 -10 22.68 -10 22 C-10.66 22 -11.32 22 -12 22 Z M-9 22 C-9 22.66 -9 23.32 -9 24 C-8.34 23.67 -7.68 23.34 -7 23 C-7.66 22.67 -8.32 22.34 -9 22 Z M-1 22 C-1.33 22.66 -1.66 23.32 -2 24 C-1.34 24 -0.68 24 0 24 C-0.33 23.34 -0.66 22.68 -1 22 Z M24 22 C23.67 22.66 23.34 23.32 23 24 C23.66 24 24.32 24 25 24 C24.67 23.34 24.34 22.68 24 22 Z M37 22 C37 22.66 37 23.32 37 24 C38.65 24 40.3 24 42 24 C39.32357511 21.81509993 39.32357511 21.81509993 37 22 Z M3 22 C2.34 22.66 1.68 23.32 1 24 C3.31 24 5.62 24 8 24 C5.61837991 22.58614089 5.61837991 22.58614089 3 22 Z M17 22 C16.34 22.66 15.68 23.32 15 24 C16.98 24 18.96 24 21 24 C19.68 23.34 18.36 22.68 17 22 Z M26 24 C27.98 24 29.96 24 32 24 C32 23.34 32 22.68 32 22 C29.53721199 22 28.14775881 22.85452863 26 24 Z M45 22 C44.34 22.66 43.68 23.32 43 24 C43.99 24 44.98 24 46 24 C45.67 23.34 45.34 22.68 45 22 Z M3 25 C2.67 25.99 2.34 26.98 2 28 C2.99 27.67 3.98 27.34 5 27 C4.34 26.34 3.68 25.68 3 25 Z M-9 26 C-9.33 27.65 -9.66 29.3 -10 31 C-8.515 31.99 -8.515 31.99 -7 33 C-5.99782936 29.41672247 -5.99782936 29.41672247 -7 26 C-7.66 26 -8.32 26 -9 26 Z M14 26 C14 26.66 14 27.32 14 28 C14.66 28 15.32 28 16 28 C15.67 29.32 15.34 30.64 15 32 C15.99 32 16.98 32 18 32 C18 30.02 18 28.04 18 26 C16.68 26 15.36 26 14 26 Z M23 26 C22.67 26.66 22.34 27.32 22 28 C23.32 28 24.64 28 26 28 C26 27.34 26 26.68 26 26 C25.01 26 24.02 26 23 26 Z M30 26 C30.33 26.66 30.66 27.32 31 28 C31.66 27.67 32.32 27.34 33 27 C32.01 26.67 31.02 26.34 30 26 Z M-5 29 C-5 29.66 -5 30.32 -5 31 C-4.01 30.67 -3.02 30.34 -2 30 C-2.99 29.67 -3.98 29.34 -5 29 Z M9 29 C10 32 10 32 10 32 Z M23 29 C22.67 29.99 22.34 30.98 22 32 C22.99 32 23.98 32 25 32 C24.67 31.01 24.34 30.02 24 29 C23.67 29 23.34 29 23 29 Z M2 30 C2 31.65 2 33.3 2 35 C2.99 34.67 3.98 34.34 5 34 C4.67 32.68 4.34 31.36 4 30 C3.34 30 2.68 30 2 30 Z M29 31 C29.33 31.66 29.66 32.32 30 33 C30.66 33 31.32 33 32 33 C32 32.34 32 31.68 32 31 C31.01 31 30.02 31 29 31 Z M9 33 C10 35 10 35 10 35 Z M16 33 C15.34 33.66 14.68 34.32 14 35 C15.32 35 16.64 35 18 35 C18 34.34 18 33.68 18 33 C17.34 33 16.68 33 16 33 Z " fill="#242A31" transform="translate(36,54)"/>
<path d="M0 0 C-0.33 0.99 -0.66 1.98 -1 3 C-0.34 2.67 0.32 2.34 1 2 C1 1.34 1 0.68 1 0 C4.96 0 8.92 0 13 0 C13 0.99 13 1.98 13 3 C13.66 3 14.32 3 15 3 C14.505 1.515 14.505 1.515 14 0 C15.32 0.33 16.64 0.66 18 1 C17.67 1.33 17.34 1.66 17 2 C17.99 2.495 17.99 2.495 19 3 C19 2.01 19 1.02 19 0 C20.98 0 22.96 0 25 0 C23 2 21 4 19 6 C19 5.34 19 4.68 19 4 C18.21625 4.33 17.4325 4.66 16.625 5 C14 6 14 6 12 6 C12 5.34 12 4.68 12 4 C11.443125 4.350625 10.88625 4.70125 10.3125 5.0625 C7.46113217 6.21845993 5.91482778 5.80967438 3 5 C3.495 6.485 3.495 6.485 4 8 C3.67 8.99 3.34 9.98 3 11 C3.38932856 13.14255793 3.38932856 13.14255793 4 15 C2.66961551 15.3449145 1.33542939 15.67516582 0 16 C-1.2375 16.309375 -1.2375 16.309375 -2.5 16.625 C-5.04524959 17.00678744 -6.58342581 16.80552473 -9 16 C-9 15.01 -9 14.02 -9 13 C-10.15811388 14.05270463 -10.15811388 14.05270463 -11 16 C-14.7499837 16.02905924 -18.49993837 16.04681874 -22.25 16.0625 C-23.84521484 16.07506836 -23.84521484 16.07506836 -25.47265625 16.08789062 C-26.49746094 16.09111328 -27.52226563 16.09433594 -28.578125 16.09765625 C-29.99206543 16.10551147 -29.99206543 16.10551147 -31.43457031 16.11352539 C-33.78123437 16.00968082 -35.75644478 15.66706529 -38 15 C-38.33 16.65 -38.66 18.3 -39 20 C-39.66 20 -40.32 20 -41 20 C-41.33 18.68 -41.66 17.36 -42 16 C-43.98 16 -45.96 16 -48 16 C-47.67 15.01 -47.34 14.02 -47 13 C-49.64 13 -52.28 13 -55 13 C-55 12.34 -55 11.68 -55 11 C-52.69 11 -50.38 11 -48 11 C-48.33 10.01 -48.66 9.02 -49 8 C-48.83988879 5.29876894 -48.39559392 2.68124769 -48 0 C-44.7 0 -41.4 0 -38 0 C-38 0.99 -38 1.98 -38 3 C-37.67 2.01 -37.34 1.02 -37 0 C-33.04 0 -29.08 0 -25 0 C-24.67 0.99 -24.34 1.98 -24 3 C-24 2.01 -24 1.02 -24 0 C-23.38253906 0.01160156 -22.76507813 0.02320312 -22.12890625 0.03515625 C-17.75852196 0.08172047 -13.524754 0.0070384 -9.1875 -0.5625 C-5.89202618 -0.98319879 -3.23519943 -0.93925145 0 0 Z M-46 1 C-46 1.99 -46 2.98 -46 4 C-45.34 3.67 -44.68 3.34 -44 3 C-44 2.34 -44 1.68 -44 1 C-44.66 1 -45.32 1 -46 1 Z M-43 1 C-43 1.66 -43 2.32 -43 3 C-42.34 2.67 -41.68 2.34 -41 2 C-41.66 1.67 -42.32 1.34 -43 1 Z M-35 1 C-35.33 1.66 -35.66 2.32 -36 3 C-35.34 3 -34.68 3 -34 3 C-34.33 2.34 -34.66 1.68 -35 1 Z M-10 1 C-10.33 1.66 -10.66 2.32 -11 3 C-10.34 3 -9.68 3 -9 3 C-9.33 2.34 -9.66 1.68 -10 1 Z M3 1 C3 1.66 3 2.32 3 3 C4.65 3 6.3 3 8 3 C5.32357511 0.81509993 5.32357511 0.81509993 3 1 Z M-31 1 C-31.66 1.66 -32.32 2.32 -33 3 C-30.69 3 -28.38 3 -26 3 C-28.38162009 1.58614089 -28.38162009 1.58614089 -31 1 Z M-17 1 C-17.66 1.66 -18.32 2.32 -19 3 C-17.02 3 -15.04 3 -13 3 C-14.32 2.34 -15.64 1.68 -17 1 Z M-8 3 C-6.02 3 -4.04 3 -2 3 C-2 2.34 -2 1.68 -2 1 C-4.46278801 1 -5.85224119 1.85452863 -8 3 Z M11 1 C10.34 1.66 9.68 2.32 9 3 C9.99 3 10.98 3 12 3 C11.67 2.34 11.34 1.68 11 1 Z M-31 4 C-31.33 4.99 -31.66 5.98 -32 7 C-31.01 6.67 -30.02 6.34 -29 6 C-29.66 5.34 -30.32 4.68 -31 4 Z M-43 5 C-43.33 6.65 -43.66 8.3 -44 10 C-42.515 10.99 -42.515 10.99 -41 12 C-39.99782936 8.41672247 -39.99782936 8.41672247 -41 5 C-41.66 5 -42.32 5 -43 5 Z M-20 5 C-20 5.66 -20 6.32 -20 7 C-19.34 7 -18.68 7 -18 7 C-18.33 8.32 -18.66 9.64 -19 11 C-18.01 11 -17.02 11 -16 11 C-16 9.02 -16 7.04 -16 5 C-17.32 5 -18.64 5 -20 5 Z M-11 5 C-11.33 5.66 -11.66 6.32 -12 7 C-10.68 7 -9.36 7 -8 7 C-8 6.34 -8 5.68 -8 5 C-8.99 5 -9.98 5 -11 5 Z M-4 5 C-3.67 5.66 -3.34 6.32 -3 7 C-2.34 6.67 -1.68 6.34 -1 6 C-1.99 5.67 -2.98 5.34 -4 5 Z M-39 8 C-39 8.66 -39 9.32 -39 10 C-38.01 9.67 -37.02 9.34 -36 9 C-36.99 8.67 -37.98 8.34 -39 8 Z M-25 8 C-24 11 -24 11 -24 11 Z M-11 8 C-11.33 8.99 -11.66 9.98 -12 11 C-11.01 11 -10.02 11 -9 11 C-9.33 10.01 -9.66 9.02 -10 8 C-10.33 8 -10.66 8 -11 8 Z M-32 9 C-32 10.65 -32 12.3 -32 14 C-31.01 13.67 -30.02 13.34 -29 13 C-29.33 11.68 -29.66 10.36 -30 9 C-30.66 9 -31.32 9 -32 9 Z M-5 10 C-4.67 10.66 -4.34 11.32 -4 12 C-3.34 12 -2.68 12 -2 12 C-2 11.34 -2 10.68 -2 10 C-2.99 10 -3.98 10 -5 10 Z M-25 12 C-24 14 -24 14 -24 14 Z M-18 12 C-18.66 12.66 -19.32 13.32 -20 14 C-18.68 14 -17.36 14 -16 14 C-16 13.34 -16 12.68 -16 12 C-16.66 12 -17.32 12 -18 12 Z " fill="#242931" transform="translate(70,75)"/>
<path d="M0 0 C0.53625 0.66 1.0725 1.32 1.625 2 C3.88744631 4.27623787 3.88744631 4.27623787 7.125 4.375 C10.12575284 4.280721 10.12575284 4.280721 12 2 C12.33 2.99 12.66 3.98 13 5 C11 8 11 8 9 9 C8.27306096 10.97888961 7.60183749 12.97954558 7 15 C7.33 15.33 7.66 15.66 8 16 C8.66 14.68 9.32 13.36 10 12 C10.66 12 11.32 12 12 12 C12.33 12.66 12.66 13.32 13 14 C13.66 14 14.32 14 15 14 C14.505 12.02 14.505 12.02 14 10 C14.66 9.67 15.32 9.34 16 9 C17.13350534 6.98330173 17.13350534 6.98330173 18 5 C17.67 7.64 17.34 10.28 17 13 C18.32 12.67 19.64 12.34 21 12 C20 15 20 15 18 16.0625 C17.34 16.371875 16.68 16.68125 16 17 C15.67 17.66 15.34 18.32 15 19 C16.32 19.33 17.64 19.66 19 20 C18.34 20.66 17.68 21.32 17 22 C15.68 22 14.36 22 13 22 C13.66 22.66 14.32 23.32 15 24 C14.34 24.66 13.68 25.32 13 26 C10.5 25.625 10.5 25.625 8 25 C7.34 25 6.68 25 6 25 C6 25.66 6 26.32 6 27 C6.66 27.33 7.32 27.66 8 28 C7.67 28.66 7.34 29.32 7 30 C16.9 29.505 16.9 29.505 27 29 C27.495 27.515 27.495 27.515 28 26 C28.33 26 28.66 26 29 26 C29 27.98 29 29.96 29 32 C26.69 32 24.38 32 22 32 C23.7015625 32.185625 23.7015625 32.185625 25.4375 32.375 C26.613125 32.58125 27.78875 32.7875 29 33 C29.33 33.66 29.66 34.32 30 35 C28.41773035 35.19627391 26.83410729 35.38165538 25.25 35.5625 C23.92742187 35.71912109 23.92742187 35.71912109 22.578125 35.87890625 C20 36 20 36 17.984375 35.46484375 C15.97909674 34.84956835 15.97909674 34.84956835 13.86328125 35.43359375 C9.64296071 36.2684457 5.47753056 36.10408866 1.1875 36.0625 C-0.13797852 36.05573242 -0.13797852 36.05573242 -1.49023438 36.04882812 C-3.66018559 36.03709866 -5.83010172 36.01916495 -8 36 C-8 35.34 -8 34.68 -8 34 C-9.60875 34.2475 -9.60875 34.2475 -11.25 34.5 C-15 35 -15 35 -19 35 C-19 34.34 -19 33.68 -19 33 C-16.69 33 -14.38 33 -12 33 C-12 32.01 -12 31.02 -12 30 C-8.37 30 -4.74 30 -1 30 C-0.67 28.68 -0.34 27.36 0 26 C-1.65 25.67 -3.3 25.34 -5 25 C-5 24.34 -5 23.68 -5 23 C-4.01 23 -3.02 23 -2 23 C-5.3 22.67 -8.6 22.34 -12 22 C-12 21.34 -12 20.68 -12 20 C-10.68 19.67 -9.36 19.34 -8 19 C-8 18.34 -8 17.68 -8 17 C-10.31 16.34 -12.62 15.68 -15 15 C-15 14.34 -15 13.68 -15 13 C-12.69 13 -10.38 13 -8 13 C-8 12.01 -8 11.02 -8 10 C-8.66 9.67 -9.32 9.34 -10 9 C-9.67 8.01 -9.34 7.02 -9 6 C-6 8 -6 8 -5.3125 10.625 C-5.209375 11.40875 -5.10625 12.1925 -5 13 C-4.01 13 -3.02 13 -2 13 C-2.33 11.35 -2.66 9.7 -3 8 C-3.66 8 -4.32 8 -5 8 C-5.66 6.68 -6.32 5.36 -7 4 C-4.1875 4.0625 -4.1875 4.0625 -1 5 C0.75 8.5 0.75 8.5 2 12 C2.66 12.33 3.32 12.66 4 13 C3.42365861 8.24518354 1.44931479 5.02951788 -1 1 C-0.67 0.67 -0.34 0.34 0 0 Z M-2 14 C-2.33 14.66 -2.66 15.32 -3 16 C-2.01 15.67 -1.02 15.34 0 15 C-0.66 14.67 -1.32 14.34 -2 14 Z M-10 31 C-10.33 31.66 -10.66 32.32 -11 33 C-10.34 33 -9.68 33 -9 33 C-9.33 32.34 -9.66 31.68 -10 31 Z M15 31 C15.33 31.66 15.66 32.32 16 33 C16.66 32.67 17.32 32.34 18 32 C17.01 31.67 16.02 31.34 15 31 Z " fill="#2B323A" transform="translate(44,17)"/>
<path d="M0 0 C3.3 0 6.6 0 10 0 C10 0.99 10 1.98 10 3 C10.33 2.01 10.66 1.02 11 0 C14.96 0 18.92 0 23 0 C23.495 6.93 23.495 6.93 24 14 C19.03397496 16.48301252 15.28269111 16.62544342 10 15 C9.67 16.65 9.34 18.3 9 20 C8.34 20 7.68 20 7 20 C6.67 18.68 6.34 17.36 6 16 C4.02 16 2.04 16 0 16 C0.33 15.01 0.66 14.02 1 13 C-1.64 13 -4.28 13 -7 13 C-7 12.34 -7 11.68 -7 11 C-4.69 11 -2.38 11 0 11 C-0.33 10.01 -0.66 9.02 -1 8 C-0.83988879 5.29876894 -0.39559392 2.68124769 0 0 Z M2 1 C2 1.99 2 2.98 2 4 C2.66 3.67 3.32 3.34 4 3 C4 2.34 4 1.68 4 1 C3.34 1 2.68 1 2 1 Z M5 1 C5 1.66 5 2.32 5 3 C5.66 2.67 6.32 2.34 7 2 C6.34 1.67 5.68 1.34 5 1 Z M13 1 C12.67 1.66 12.34 2.32 12 3 C12.66 3 13.32 3 14 3 C13.67 2.34 13.34 1.68 13 1 Z M17 1 C16.34 1.66 15.68 2.32 15 3 C17.31 3 19.62 3 22 3 C19.61837991 1.58614089 19.61837991 1.58614089 17 1 Z M17 4 C16.67 4.99 16.34 5.98 16 7 C16.99 6.67 17.98 6.34 19 6 C18.34 5.34 17.68 4.68 17 4 Z M5 5 C4.67 6.65 4.34 8.3 4 10 C5.485 10.99 5.485 10.99 7 12 C8.00217064 8.41672247 8.00217064 8.41672247 7 5 C6.34 5 5.68 5 5 5 Z M9 8 C9 8.66 9 9.32 9 10 C9.99 9.67 10.98 9.34 12 9 C11.01 8.67 10.02 8.34 9 8 Z M16 9 C16 10.65 16 12.3 16 14 C16.99 13.67 17.98 13.34 19 13 C18.67 11.68 18.34 10.36 18 9 C17.34 9 16.68 9 16 9 Z " fill="#1F242B" transform="translate(22,75)"/>
<path d="M0 0 C2 2 2 2 2.23046875 4.171875 C2.15200005 8.87999721 1.97451578 13.37105003 1 18 C-0.65 18 -2.3 18 -4 18 C-4 16.02 -4 14.04 -4 12 C-4.66 12.66 -5.32 13.32 -6 14 C-5.6814823 16.10820797 -5.6814823 16.10820797 -5 18 C-7.375 18.125 -7.375 18.125 -10 18 C-10.66 17.34 -11.32 16.68 -12 16 C-12.99 16.33 -13.98 16.66 -15 17 C-15 16.01 -15 15.02 -15 14 C-15.721875 14.680625 -16.44375 15.36125 -17.1875 16.0625 C-20 18 -20 18 -22.8125 17.75 C-23.534375 17.5025 -24.25625 17.255 -25 17 C-25 16.34 -25 15.68 -25 15 C-24.34 14.67 -23.68 14.34 -23 14 C-22.06154746 12.17712703 -21.19564908 10.31635447 -20.375 8.4375 C-19.70597656 6.91962891 -19.70597656 6.91962891 -19.0234375 5.37109375 C-18.68570313 4.58863281 -18.34796875 3.80617187 -18 3 C-19.32 2.67 -20.64 2.34 -22 2 C-22 1.67 -22 1.34 -22 1 C-20.3973218 0.89175157 -18.79254252 0.81429355 -17.1875 0.75 C-16.29417969 0.70359375 -15.40085937 0.6571875 -14.48046875 0.609375 C-12 1 -12 1 -10.17578125 3.015625 C-9.59376953 3.99789062 -9.59376953 3.99789062 -9 5 C-9.33 5.66 -9.66 6.32 -10 7 C-8.35 7 -6.7 7 -5 7 C-5.33 8.32 -5.66 9.64 -6 11 C-5.34 11 -4.68 11 -4 11 C-4 7.7 -4 4.4 -4 1 C-2.68 0.67 -1.36 0.34 0 0 Z M-16 8 C-16.33 8.99 -16.66 9.98 -17 11 C-15.68 10.67 -14.36 10.34 -13 10 C-13.99 9.34 -14.98 8.68 -16 8 Z " fill="#293038" transform="translate(93,57)"/>
<path d="M0 0 C0.99 0.33 1.98 0.66 3 1 C2.67 1.66 2.34 2.32 2 3 C2.66 3 3.32 3 4 3 C4.33 2.01 4.66 1.02 5 0 C5 0.99 5 1.98 5 3 C5.99 3 6.98 3 8 3 C8 2.34 8 1.68 8 1 C7.34 0.67 6.68 0.34 6 0 C6.99 0 7.98 0 9 0 C9 0.99 9 1.98 9 3 C10.670625 2.7215625 10.670625 2.7215625 12.375 2.4375 C16 2 16 2 18 3 C18 2.01 18 1.02 18 0 C18.66 0.33 19.32 0.66 20 1 C19.67 1.66 19.34 2.32 19 3 C19.99 3 20.98 3 22 3 C21.67 2.01 21.34 1.02 21 0 C21.99 0 22.98 0 24 0 C24 0.66 24 1.32 24 2 C25.32 2.66 26.64 3.32 28 4 C27.67 4.66 27.34 5.32 27 6 C25.948125 5.814375 24.89625 5.62875 23.8125 5.4375 C20.42880118 5.04920669 18.23574112 5.11752515 15 6 C15 5.34 15 4.68 15 4 C13.02 4.99 13.02 4.99 11 6 C11 5.34 11 4.68 11 4 C10.34 4 9.68 4 9 4 C8.67 4.66 8.34 5.32 8 6 C7.46375 5.835 6.9275 5.67 6.375 5.5 C3.89466602 4.88459283 3.89466602 4.88459283 0.875 5.0625 C-2 5 -2 5 -4 3 C-2.35 3 -0.7 3 1 3 C0.67 2.01 0.34 1.02 0 0 Z " fill="#000000" transform="translate(4,5)"/>
<path d="M0 0 C3.96 0 7.92 0 12 0 C12 0.99 12 1.98 12 3 C12.66 3 13.32 3 14 3 C13.67 2.01 13.34 1.02 13 0 C14.32 0.33 15.64 0.66 17 1 C16.67 1.33 16.34 1.66 16 2 C16.66 2.33 17.32 2.66 18 3 C18 2.01 18 1.02 18 0 C19.98 0 21.96 0 24 0 C22 2 20 4 18 6 C18 5.34 18 4.68 18 4 C17.21625 4.33 16.4325 4.66 15.625 5 C13 6 13 6 11 6 C11 5.34 11 4.68 11 4 C10.443125 4.350625 9.88625 4.70125 9.3125 5.0625 C6.40114837 6.24277769 4.97006011 5.91386465 2 5 C1.01 4.34 0.02 3.68 -1 3 C-0.67 2.01 -0.34 1.02 0 0 Z M2 1 C2 1.66 2 2.32 2 3 C3.65 3 5.3 3 7 3 C4.32357511 0.81509993 4.32357511 0.81509993 2 1 Z M10 1 C9.34 1.66 8.68 2.32 8 3 C8.99 3 9.98 3 11 3 C10.67 2.34 10.34 1.68 10 1 Z " fill="#000000" transform="translate(71,75)"/>
<path d="M0 0 C0.99 0.33 1.98 0.66 3 1 C2.67 1.33 2.34 1.66 2 2 C5.63 2.33 9.26 2.66 13 3 C12.01 4.485 12.01 4.485 11 6 C11 5.34 11 4.68 11 4 C10.01 4 9.02 4 8 4 C7.67 4.66 7.34 5.32 7 6 C7 5.34 7 4.68 7 4 C6.01 4.33 5.02 4.66 4 5 C3.34 4.67 2.68 4.34 2 4 C2 4.66 2 5.32 2 6 C5.63 6.33 9.26 6.66 13 7 C11 9 11 9 8.84521484 9.22705078 C7.97590332 9.21657715 7.1065918 9.20610352 6.2109375 9.1953125 C5.26992187 9.18886719 4.32890625 9.18242188 3.359375 9.17578125 C2.37453125 9.15902344 1.3896875 9.14226562 0.375 9.125 C-0.61757812 9.11597656 -1.61015625 9.10695313 -2.6328125 9.09765625 C-5.08878134 9.07404116 -7.54427168 9.04110799 -10 9 C-9.67 8.01 -9.34 7.02 -9 6 C-2.25 5.875 -2.25 5.875 0 7 C0 6.34 0 5.68 0 5 C-1.32 4.67 -2.64 4.34 -4 4 C-2.68 3.67 -1.36 3.34 0 3 C0 2.01 0 1.02 0 0 Z " fill="#000000" transform="translate(78,86)"/>
<path d="M0 0 C0.33 0 0.66 0 1 0 C1 1.98 1 3.96 1 6 C-1.31 6 -3.62 6 -6 6 C-4.865625 6.12375 -3.73125 6.2475 -2.5625 6.375 C-1.386875 6.58125 -0.21125 6.7875 1 7 C1.33 7.66 1.66 8.32 2 9 C0.39602723 9.16852247 -1.2081869 9.33474886 -2.8125 9.5 C-3.70582031 9.5928125 -4.59914063 9.685625 -5.51953125 9.78125 C-8 10 -8 10 -11 10 C-11.33 9.01 -11.66 8.02 -12 7 C-13.96822886 5.03177114 -17.34808709 5.33751619 -20 5 C-20 4.67 -20 4.34 -20 4 C-13.73 3.67 -7.46 3.34 -1 3 C-0.67 2.01 -0.34 1.02 0 0 Z " fill="#000000" transform="translate(72,43)"/>
<path d="M0 0 C1.65 0 3.3 0 5 0 C5 0.99 5 1.98 5 3 C9.95 3 14.9 3 20 3 C19.67 3.99 19.34 4.98 19 6 C18.67 5.34 18.34 4.68 18 4 C17.505 4.350625 17.01 4.70125 16.5 5.0625 C13.43368259 6.21236903 11.14222233 5.73509502 7.9609375 5.2265625 C5.47349363 4.93916859 3.41099214 5.38003059 1 6 C-2 6 -2 6 -5 5 C-5.99 5.495 -5.99 5.495 -7 6 C-7 5.01 -7 4.02 -7 3 C-3.37 3 0.26 3 4 3 C4 2.34 4 1.68 4 1 C2.68 1.33 1.36 1.66 0 2 C0 1.34 0 0.68 0 0 Z " fill="#000000" transform="translate(75,12)"/>
<path d="M0 0 C2.31 0 4.62 0 7 0 C6.67 0.99 6.34 1.98 6 3 C8.97 3 11.94 3 15 3 C15 2.01 15 1.02 15 0 C16.65 0 18.3 0 20 0 C18.68 0.33 17.36 0.66 16 1 C16.33 2.65 16.66 4.3 17 6 C16.01 5.67 15.02 5.34 14 5 C13.01 5.33 12.02 5.66 11 6 C11 5.34 11 4.68 11 4 C7.6056885 4.47520361 4.23659726 4.95268055 0.875 5.625 C-2.06001554 6.00782811 -4.15708136 5.75253729 -7 5 C-7 4.34 -7 3.68 -7 3 C-3.04 3 0.92 3 5 3 C5 2.34 5 1.68 5 1 C3.68 1.33 2.36 1.66 1 2 C0.67 1.34 0.34 0.68 0 0 Z " fill="#000000" transform="translate(7,19)"/>
<path d="M0 0 C-0.33 1.98 -0.66 3.96 -1 6 C-1.66 6 -2.32 6 -3 6 C-3.33 4.68 -3.66 3.36 -4 2 C-5.32 2 -6.64 2 -8 2 C-8 3.32 -8 4.64 -8 6 C-8.66 6 -9.32 6 -10 6 C-10 5.34 -10 4.68 -10 4 C-11.32 3.67 -12.64 3.34 -14 3 C-14.66 3.99 -15.32 4.98 -16 6 C-16.5534764 3.92446352 -17 2.15634036 -17 0 C-11.1314592 -1.14819277 -5.9114744 -0.77313045 0 0 Z M-11 1 C-11.33 1.66 -11.66 2.32 -12 3 C-11.01 2.67 -10.02 2.34 -9 2 C-9.66 1.67 -10.32 1.34 -11 1 Z " fill="#000000" transform="translate(88,33)"/>
<path d="M0 0 C8.91 0 17.82 0 27 0 C24.39819158 2.60180842 22.60258085 2.5676903 19 3 C15 3 15 3 13.125 2.4375 C10.87004515 1.83917875 10.87004515 1.83917875 8.0625 2.5 C4.98789129 3.00197693 2.98159688 2.78924623 0 2 C0 1.34 0 0.68 0 0 Z " fill="#000000" transform="translate(0,15)"/>
<path d="M0 0 C3.74993479 -0.05811773 7.49975352 -0.09363593 11.25 -0.125 C12.84521484 -0.15013672 12.84521484 -0.15013672 14.47265625 -0.17578125 C16.00986328 -0.18544922 16.00986328 -0.18544922 17.578125 -0.1953125 C18.52075195 -0.20578613 19.46337891 -0.21625977 20.43457031 -0.22705078 C23.09951941 0.00880787 24.71863092 0.64338341 27 2 C26.34 2.66 25.68 3.32 25 4 C25 3.34 25 2.68 25 2 C23.02 2 21.04 2 19 2 C18.67 2.66 18.34 3.32 18 4 C17.67 3.67 17.34 3.34 17 3 C16.34 3.66 15.68 4.32 15 5 C14.67 4.34 14.34 3.68 14 3 C11.47266765 2.34444881 11.47266765 2.34444881 9 2 C8.67 2.66 8.34 3.32 8 4 C5.16032769 4 2.76264289 3.59732819 0 3 C0 2.01 0 1.02 0 0 Z " fill="#000000" transform="translate(22,0)"/>
<path d="M0 0 C2.97 0 5.94 0 9 0 C8.34 0.66 7.68 1.32 7 2 C6.34 1.67 5.68 1.34 5 1 C5 1.66 5 2.32 5 3 C7.64 3 10.28 3 13 3 C12.67 4.98 12.34 6.96 12 9 C11.01 7.68 10.02 6.36 9 5 C7.88625 5.2784375 7.88625 5.2784375 6.75 5.5625 C4.05009037 5.99203108 2.55368923 5.85122974 0 5 C0 4.34 0 3.68 0 3 C0.66 2.67 1.32 2.34 2 2 C1.34 2 0.68 2 0 2 C0 1.34 0 0.68 0 0 Z " fill="#000000" transform="translate(82,47)"/>
<path d="M0 0 C-0.33 0.99 -0.66 1.98 -1 3 C-1.99 2.34 -2.98 1.68 -4 1 C-4.33 1.66 -4.66 2.32 -5 3 C-5.99 2.34 -6.98 1.68 -8 1 C-8.33 1.66 -8.66 2.32 -9 3 C-9 2.34 -9 1.68 -9 1 C-11.31 1.66 -13.62 2.32 -16 3 C-16 2.34 -16 1.68 -16 1 C-17.32 1.33 -18.64 1.66 -20 2 C-20 1.34 -20 0.68 -20 0 C-13.20164451 -0.95415516 -6.76298691 -1.63951198 0 0 Z " fill="#000000" transform="translate(84,1)"/>
<path d="M0 0 C6.6 0 13.2 0 20 0 C19.34 0.66 18.68 1.32 18 2 C15.375 1.625 15.375 1.625 13 1 C13 1.66 13 2.32 13 3 C12.34 3 11.68 3 11 3 C11 2.34 11 1.68 11 1 C9.700625 1.2475 9.700625 1.2475 8.375 1.5 C5.18774801 1.97218548 2.21514973 2.07655118 -1 2 C-0.67 1.34 -0.34 0.68 0 0 Z " fill="#000000" transform="translate(4,40)"/>
<path d="M0 0 C-0.99 1.485 -0.99 1.485 -2 3 C-2 2.34 -2 1.68 -2 1 C-3.60875 1.495 -3.60875 1.495 -5.25 2 C-9.97044035 3.25878409 -12.78941029 3.40605127 -17 1 C-11.49688558 -0.83437147 -5.64347329 -1.63842773 0 0 Z " fill="#000000" transform="translate(70,75)"/>
<path d="M0 0 C2.31 0 4.62 0 7 0 C6.67 0.66 6.34 1.32 6 2 C4.68 2 3.36 2 2 2 C2 2.99 2 3.98 2 5 C-0.97 5 -3.94 5 -7 5 C-7 4.34 -7 3.68 -7 3 C-4.69 3 -2.38 3 0 3 C0 2.01 0 1.02 0 0 Z " fill="#000000" transform="translate(32,47)"/>
<path d="M0 0 C1.98 0 3.96 0 6 0 C6 0.66 6 1.32 6 2 C7.32 2.33 8.64 2.66 10 3 C10 3.99 10 4.98 10 6 C9.34 6 8.68 6 8 6 C8 5.34 8 4.68 8 4 C5.69 4.33 3.38 4.66 1 5 C1.33 4.01 1.66 3.02 2 2 C1.34 1.34 0.68 0.68 0 0 Z " fill="#000000" transform="translate(18,33)"/>
<path d="M0 0 C1.15242188 0.10183594 2.30484375 0.20367188 3.4921875 0.30859375 C4.36101563 0.39238281 5.22984375 0.47617187 6.125 0.5625 C5.135 2.0475 5.135 2.0475 4.125 3.5625 C4.125 2.9025 4.125 2.2425 4.125 1.5625 C3.135 1.5625 2.145 1.5625 1.125 1.5625 C0.795 2.2225 0.465 2.8825 0.125 3.5625 C0.125 2.9025 0.125 2.2425 0.125 1.5625 C-1.421875 1.8409375 -1.421875 1.8409375 -3 2.125 C-6.63648442 2.53557082 -9.32937009 2.340809 -12.875 1.5625 C-12.875 1.2325 -12.875 0.9025 -12.875 0.5625 C-8.41295824 -0.3529645 -4.52954615 -0.41597873 0 0 Z " fill="#000000" transform="translate(14.875,25.4375)"/>
<path d="M0 0 C5.61 0 11.22 0 17 0 C16.67 0.66 16.34 1.32 16 2 C12.71585695 2.95067299 11.30306592 3.10102197 8 2 C6.60560336 1.93334624 5.20830125 1.91461801 3.8125 1.9375 C2.554375 1.958125 1.29625 1.97875 0 2 C0 1.34 0 0.68 0 0 Z " fill="#000000" transform="translate(4,82)"/>
<path d="M0 0 C0.66 0.66 1.32 1.32 2 2 C1.67 2.66 1.34 3.32 1 4 C-0.32 4 -1.64 4 -3 4 C-3.33 3.34 -3.66 2.68 -4 2 C-4.66 2 -5.32 2 -6 2 C-6 2.66 -6 3.32 -6 4 C-8.475 3.01 -8.475 3.01 -11 2 C-11 1.67 -11 1.34 -11 1 C-9.20991533 0.77848451 -7.41781838 0.57317787 -5.625 0.375 C-4.62726563 0.25898437 -3.62953125 0.14296875 -2.6015625 0.0234375 C-1.74304688 0.01570313 -0.88453125 0.00796875 0 0 Z " fill="#000000" transform="translate(86,81)"/>
<path d="M0 0 C-1.32 0.33 -2.64 0.66 -4 1 C-4 1.66 -4 2.32 -4 3 C-2.35 3 -0.7 3 1 3 C-1 5 -1 5 -4.625 5.125 C-5.73875 5.08375 -6.8525 5.0425 -8 5 C-8.33 4.34 -8.66 3.68 -9 3 C-7.68 3 -6.36 3 -5 3 C-5 2.34 -5 1.68 -5 1 C-5.99 1.33 -6.98 1.66 -8 2 C-8.33 1.34 -8.66 0.68 -9 0 C-5.67465243 -1.10844919 -3.37817425 -0.84454356 0 0 Z " fill="#000000" transform="translate(13,44)"/>
<path d="M0 0 C2.97 0 5.94 0 9 0 C9 0.66 9 1.32 9 2 C6.36 1.67 3.72 1.34 1 1 C1.33 1.99 1.66 2.98 2 4 C0.02 4.66 -1.96 5.32 -4 6 C-4 5.01 -4 4.02 -4 3 C-2.68 3 -1.36 3 0 3 C0 2.01 0 1.02 0 0 Z " fill="#000000" transform="translate(68,5)"/>
<path d="M0 0 C0.66 1.32 1.32 2.64 2 4 C0.66961551 4.3449145 -0.66457061 4.67516582 -2 5 C-2.825 5.20625 -3.65 5.4125 -4.5 5.625 C-7.04524959 6.00678744 -8.58342581 5.80552473 -11 5 C-11 4.34 -11 3.68 -11 3 C-7.37 3 -3.74 3 0 3 C0 2.01 0 1.02 0 0 Z " fill="#000000" transform="translate(72,86)"/>
<path d="M0 0 C3.3 0 6.6 0 10 0 C10 0.66 10 1.32 10 2 C7 3 7 3 4 3 C4 2.34 4 1.68 4 1 C1.83656989 3.03268602 1.83656989 3.03268602 0 6 C0 4.02 0 2.04 0 0 Z " fill="#000000" transform="translate(22,75)"/>
<path d="M0 0 C2.31 0 4.62 0 7 0 C6.67 2.31 6.34 4.62 6 7 C5.34 7 4.68 7 4 7 C3.896875 6.401875 3.79375 5.80375 3.6875 5.1875 C2.91123545 2.71756736 1.92911079 1.67748765 0 0 Z " fill="#000000" transform="translate(74,50)"/>
<path d="M0 0 C4.29 0 8.58 0 13 0 C11.515 1.485 11.515 1.485 10 3 C7.6875 2.6875 7.6875 2.6875 5 2 C3.0003559 1.96227087 0.99945939 1.95350094 -1 2 C-0.67 1.34 -0.34 0.68 0 0 Z " fill="#000000" transform="translate(5,36)"/>
<path d="M0 0 C4.62 0 9.24 0 14 0 C13.67 0.66 13.34 1.32 13 2 C9.04 2 5.08 2 1 2 C0.67 1.34 0.34 0.68 0 0 Z " fill="#000000" transform="translate(60,40)"/>
<path d="M0 0 C3.3 0 6.6 0 10 0 C9.67 0.99 9.34 1.98 9 3 C7.35 3 5.7 3 4 3 C4 2.34 4 1.68 4 1 C3.34 1 2.68 1 2 1 C2 1.66 2 2.32 2 3 C1.34 3 0.68 3 0 3 C0 2.01 0 1.02 0 0 Z " fill="#000000" transform="translate(71,8)"/>
<path d="M0 0 C1.52519276 0.08937803 3.04681929 0.24537146 4.5625 0.4375 C5.80193359 0.59025391 5.80193359 0.59025391 7.06640625 0.74609375 C7.70449219 0.82988281 8.34257813 0.91367188 9 1 C9 1.99 9 2.98 9 4 C8.34 4 7.68 4 7 4 C7 3.34 7 2.68 7 2 C4.69 2.66 2.38 3.32 0 4 C-0.33 3.01 -0.66 2.02 -1 1 C-0.67 0.67 -0.34 0.34 0 0 Z " fill="#000000" transform="translate(54,0)"/>
<path d="M0 0 C0.66 1.32 1.32 2.64 2 4 C-2.75 3.125 -2.75 3.125 -5 2 C-5.33 2.66 -5.66 3.32 -6 4 C-6.66 3.01 -7.32 2.02 -8 1 C-6.865625 1.020625 -5.73125 1.04125 -4.5625 1.0625 C-1.18424326 1.41577477 -1.18424326 1.41577477 0 0 Z " fill="#000000" transform="translate(8,77)"/>
<path d="M0 0 C2.64 0 5.28 0 8 0 C8 0.99 8 1.98 8 3 C6.68 3 5.36 3 4 3 C3.67 2.34 3.34 1.68 3 1 C2.34 1 1.68 1 1 1 C1 1.66 1 2.32 1 3 C0.34 3 -0.32 3 -1 3 C-0.67 2.01 -0.34 1.02 0 0 Z " fill="#000000" transform="translate(58,54)"/>
<path d="M0 0 C0 0.66 0 1.32 0 2 C-3.3 2 -6.6 2 -10 2 C-9.67 1.34 -9.34 0.68 -9 0 C-2.57142857 -1.28571429 -2.57142857 -1.28571429 0 0 Z " fill="#000000" transform="translate(21,54)"/>
<path d="M0 0 C1.98 0 3.96 0 6 0 C5.67 0.99 5.34 1.98 5 3 C4.67 2.34 4.34 1.68 4 1 C3.34 1 2.68 1 2 1 C2.33 2.65 2.66 4.3 3 6 C2.01 5.34 1.02 4.68 0 4 C0 2.68 0 1.36 0 0 Z " fill="#000000" transform="translate(25,40)"/>
<path d="M0 0 C0 0.66 0 1.32 0 2 C-2.97 2 -5.94 2 -9 2 C-9.33 1.34 -9.66 0.68 -10 0 C-6.30458414 -0.95024979 -3.69541586 -0.95024979 0 0 Z " fill="#000000" transform="translate(10,1)"/>
<path d="M0 0 C0 0.66 0 1.32 0 2 C-2.97 2 -5.94 2 -9 2 C-9 1.34 -9 0.68 -9 0 C-5.52176885 -1.15941038 -3.54104422 -0.70820884 0 0 Z " fill="#000000" transform="translate(91,26)"/>
<path d="M0 0 C3.3 0 6.6 0 10 0 C8 2 8 2 4.375 2.125 C3.26125 2.08375 2.1475 2.0425 1 2 C0.67 1.34 0.34 0.68 0 0 Z " fill="#000000" transform="translate(4,50)"/>
<path d="M0 0 C3.3 0 6.6 0 10 0 C8 2 8 2 6.0546875 2.1953125 C4.03645833 2.13020833 2.01822917 2.06510417 0 2 C0 1.34 0 0.68 0 0 Z " fill="#000000" transform="translate(85,19)"/>
<path d="M0 0 C0.99 0.33 1.98 0.66 3 1 C2.67 2.32 2.34 3.64 2 5 C0.35 5 -1.3 5 -3 5 C-3 4.34 -3 3.68 -3 3 C-1.68 3 -0.36 3 1 3 C0.67 2.01 0.34 1.02 0 0 Z " fill="#000000" transform="translate(18,44)"/>
<path d="M0 0 C-0.33 0.99 -0.66 1.98 -1 3 C-1.99 2.34 -2.98 1.68 -4 1 C-4.33 1.66 -4.66 2.32 -5 3 C-5.33 2.01 -5.66 1.02 -6 0 C-2.25 -1.125 -2.25 -1.125 0 0 Z " fill="#000000" transform="translate(80,26)"/>
<path d="M0 0 C1.67542976 0.28604898 3.34385343 0.61781233 5 1 C4.67 1.99 4.34 2.98 4 4 C2.68 4 1.36 4 0 4 C-0.33 3.01 -0.66 2.02 -1 1 C-0.67 0.67 -0.34 0.34 0 0 Z " fill="#000000" transform="translate(86,0)"/>
<path d="M0 0 C0 0.66 0 1.32 0 2 C-1.32 1.67 -2.64 1.34 -4 1 C-4 1.66 -4 2.32 -4 3 C-4.66 3 -5.32 3 -6 3 C-6 2.01 -6 1.02 -6 0 C-2.25 -1.125 -2.25 -1.125 0 0 Z " fill="#000000" transform="translate(21,1)"/>
<path d="M0 0 C0.33 0.99 0.66 1.98 1 3 C-0.65 3.33 -2.3 3.66 -4 4 C-4 3.01 -4 2.02 -4 1 C-2.02 1.495 -2.02 1.495 0 2 C0 1.34 0 0.68 0 0 Z " fill="#000000" transform="translate(44,53)"/>
<path d="M0 0 C2.64 0 5.28 0 8 0 C8 0.99 8 1.98 8 3 C5.36 2.67 2.72 2.34 0 2 C0 1.34 0 0.68 0 0 Z " fill="#000000" transform="translate(33,43)"/>
<path d="M0 0 C1.98 0 3.96 0 6 0 C6 0.66 6 1.32 6 2 C3.69 2 1.38 2 -1 2 C-0.67 1.34 -0.34 0.68 0 0 Z " fill="#000000" transform="translate(82,40)"/>
<path d="M0 0 C2.97 0 5.94 0 9 0 C7 2 7 2 3.375 2.125 C2.26125 2.08375 1.1475 2.0425 0 2 C0 1.34 0 0.68 0 0 Z " fill="#000000" transform="translate(75,19)"/>
<path d="M0 0 C0.33 0.66 0.66 1.32 1 2 C3.02463255 2.65213292 3.02463255 2.65213292 5 3 C2.92446352 3.5534764 1.15634036 4 -1 4 C-0.67 2.68 -0.34 1.36 0 0 Z " fill="#000000" transform="translate(44,91)"/>
<path d="M0 0 C0.66 0.66 1.32 1.32 2 2 C1.34 2.66 0.68 3.32 0 4 C0 3.34 0 2.68 0 2 C-0.99 2 -1.98 2 -3 2 C-3.33 2.66 -3.66 3.32 -4 4 C-4 3.01 -4 2.02 -4 1 C-2.125 0.375 -2.125 0.375 0 0 Z " fill="#000000" transform="translate(93,81)"/>
<path d="M0 0 C1.98 0 3.96 0 6 0 C5.67 0.66 5.34 1.32 5 2 C2.9375 2.625 2.9375 2.625 1 3 C0.67 2.01 0.34 1.02 0 0 Z " fill="#000000" transform="translate(75,40)"/>
<path d="M0 0 C2.64 0 5.28 0 8 0 C7.34 0.66 6.68 1.32 6 2 C2.875 1.625 2.875 1.625 0 1 C0 0.67 0 0.34 0 0 Z " fill="#000000" transform="translate(87,8)"/>
<path d="M0 0 C2.97 0.495 2.97 0.495 6 1 C5.34 1.66 4.68 2.32 4 3 C2.68 3 1.36 3 0 3 C0 2.01 0 1.02 0 0 Z " fill="#000000" transform="translate(36,92)"/>
<path d="M0 0 C2.97 0.495 2.97 0.495 6 1 C5.34 1.66 4.68 2.32 4 3 C2.68 3 1.36 3 0 3 C0 2.01 0 1.02 0 0 Z " fill="#000000" transform="translate(5,11)"/>
<path d="M0 0 C1.98 0 3.96 0 6 0 C6 0.66 6 1.32 6 2 C4.02 2 2.04 2 0 2 C0 1.34 0 0.68 0 0 Z " fill="#000000" transform="translate(15,50)"/>
<path d="M0 0 C1.98 0 3.96 0 6 0 C5.34 0.66 4.68 1.32 4 2 C2.68 2 1.36 2 0 2 C0 1.34 0 0.68 0 0 Z " fill="#000000" transform="translate(5,33)"/>
<path d="M0 0 C1.98 0 3.96 0 6 0 C3 1.5 3 1.5 0 3 C0 2.01 0 1.02 0 0 Z " fill="#000000" transform="translate(78,5)"/>
<path d="M0 0 C1.65 0 3.3 0 5 0 C4.67 0.66 4.34 1.32 4 2 C2.68 2 1.36 2 0 2 C0 1.34 0 0.68 0 0 Z " fill="#000000" transform="translate(5,89)"/>
<path d="M0 0 C1.65 0 3.3 0 5 0 C5 0.66 5 1.32 5 2 C3.35 2 1.7 2 0 2 C0 1.34 0 0.68 0 0 Z " fill="#000000" transform="translate(82,86)"/>
<path d="M0 0 C0.33 0.99 0.66 1.98 1 3 C-0.65 3 -2.3 3 -4 3 C-3.34 2.34 -2.68 1.68 -2 1 C-1.34 1.33 -0.68 1.66 0 2 C0 1.34 0 0.68 0 0 Z " fill="#000000" transform="translate(86,43)"/>
<path d="M0 0 C1.98 0 3.96 0 6 0 C5.34 0.66 4.68 1.32 4 2 C2.68 2 1.36 2 0 2 C0 1.34 0 0.68 0 0 Z " fill="#000000" transform="translate(15,19)"/>
<path d="M0 0 C1.65 0 3.3 0 5 0 C5 0.66 5 1.32 5 2 C3.35 2 1.7 2 0 2 C0 1.34 0 0.68 0 0 Z " fill="#000000" transform="translate(19,12)"/>
<path d="M0 0 C2.475 0.495 2.475 0.495 5 1 C4.67 1.66 4.34 2.32 4 3 C2.68 2.67 1.36 2.34 0 2 C0 1.34 0 0.68 0 0 Z " fill="#000000" transform="translate(82,8)"/>
<path d="M0 0 C1.32 0.33 2.64 0.66 4 1 C3.01 1.66 2.02 2.32 1 3 C0.67 2.01 0.34 1.02 0 0 Z " fill="#000000" transform="translate(53,54)"/>
<path d="M0 0 C1.32 0.33 2.64 0.66 4 1 C2.68 1.33 1.36 1.66 0 2 C0 1.34 0 0.68 0 0 Z " fill="#000000" transform="translate(0,36)"/>
<path d="M0 0 C1.98 0 3.96 0 6 0 C6 0.33 6 0.66 6 1 C4.02 1.33 2.04 1.66 0 2 C0 1.34 0 0.68 0 0 Z " fill="#000000" transform="translate(89,33)"/>
<path d="M0 0 C1.98 0 3.96 0 6 0 C4.02 0.99 4.02 0.99 2 2 C1.34 1.34 0.68 0.68 0 0 Z " fill="#000000" transform="translate(89,5)"/>
<path d="M0 0 C0.66 0.66 1.32 1.32 2 2 C1.01 2.33 0.02 2.66 -1 3 C-0.67 2.01 -0.34 1.02 0 0 Z " fill="#000000" transform="translate(58,92)"/>
<path d="M0 0 C0.66 0 1.32 0 2 0 C2 0.99 2 1.98 2 3 C1.34 3 0.68 3 0 3 C0 2.01 0 1.02 0 0 Z " fill="#000000" transform="translate(50,92)"/>
<path d="M0 0 C1.65 0 3.3 0 5 0 C4.34 0.66 3.68 1.32 3 2 C2.01 1.34 1.02 0.68 0 0 Z " fill="#000000" transform="translate(2,86)"/>
<path d="M0 0 C0.99 0 1.98 0 3 0 C3 0.66 3 1.32 3 2 C2.01 2 1.02 2 0 2 C0 1.34 0 0.68 0 0 Z " fill="#000000" transform="translate(0,68)"/>
<path d="M0 0 C0.99 0 1.98 0 3 0 C2.67 0.99 2.34 1.98 2 3 C1.34 2.01 0.68 1.02 0 0 Z " fill="#000000" transform="translate(74,54)"/>
<path d="M0 0 C0.99 0 1.98 0 3 0 C2.67 0.99 2.34 1.98 2 3 C1.34 2.01 0.68 1.02 0 0 Z " fill="#000000" transform="translate(49,54)"/>
<path d="M0 0 C0.99 0.33 1.98 0.66 3 1 C2.34 1.66 1.68 2.32 1 3 C0.67 2.01 0.34 1.02 0 0 Z " fill="#000000" transform="translate(46,54)"/>
<path d="M0 0 C1.65 0 3.3 0 5 0 C3.02 0.99 3.02 0.99 1 2 C0.67 1.34 0.34 0.68 0 0 Z " fill="#000000" transform="translate(6,54)"/>
<path d="M0 0 C0.99 0 1.98 0 3 0 C3 0.66 3 1.32 3 2 C2.01 2 1.02 2 0 2 C0 1.34 0 0.68 0 0 Z " fill="#000000" transform="translate(0,50)"/>
<path d="M0 0 C1.32 0 2.64 0 4 0 C4 0.66 4 1.32 4 2 C2.68 1.34 1.36 0.68 0 0 Z " fill="#000000" transform="translate(27,47)"/>
<path d="M0 0 C0.66 0 1.32 0 2 0 C2 0.99 2 1.98 2 3 C1.34 3 0.68 3 0 3 C0 2.01 0 1.02 0 0 Z " fill="#000000" transform="translate(36,40)"/>
<path d="M0 0 C0.99 0.33 1.98 0.66 3 1 C3 1.66 3 2.32 3 3 C2.34 3 1.68 3 1 3 C0.67 2.01 0.34 1.02 0 0 Z " fill="#000000" transform="translate(67,36)"/>
<path d="M0 0 C0.99 0 1.98 0 3 0 C3 0.66 3 1.32 3 2 C2.01 2 1.02 2 0 2 C0 1.34 0 0.68 0 0 Z " fill="#000000" transform="translate(0,33)"/>
<path d="M0 0 C0.99 0.33 1.98 0.66 3 1 C2.34 1.66 1.68 2.32 1 3 C0.67 2.01 0.34 1.02 0 0 Z " fill="#000000" transform="translate(85,5)"/>
<path d="M0 0 C0.66 0.66 1.32 1.32 2 2 C1.01 2.33 0.02 2.66 -1 3 C-0.67 2.01 -0.34 1.02 0 0 Z " fill="#000000" transform="translate(12,0)"/>
<path d="M0 0 C0.66 0.66 1.32 1.32 2 2 C1.01 2 0.02 2 -1 2 C-0.67 1.34 -0.34 0.68 0 0 Z " fill="#000000" transform="translate(93,92)"/>
<path d="M0 0 C0.99 0.33 1.98 0.66 3 1 C2.01 1.33 1.02 1.66 0 2 C0 1.34 0 0.68 0 0 Z " fill="#000000" transform="translate(64,93)"/>
<path d="M0 0 C0.66 0.66 1.32 1.32 2 2 C1.01 2 0.02 2 -1 2 C-0.67 1.34 -0.34 0.68 0 0 Z " fill="#000000" transform="translate(54,92)"/>
<path d="M0 0 C0.99 0.33 1.98 0.66 3 1 C2.01 1.33 1.02 1.66 0 2 C0 1.34 0 0.68 0 0 Z " fill="#000000" transform="translate(92,89)"/>
<path d="M0 0 C0.66 0 1.32 0 2 0 C2 0.66 2 1.32 2 2 C1.01 1.67 0.02 1.34 -1 1 C-0.67 0.67 -0.34 0.34 0 0 Z " fill="#000000" transform="translate(40,72)"/>
<path d="M0 0 C0.99 0.33 1.98 0.66 3 1 C2.01 1.33 1.02 1.66 0 2 C0 1.34 0 0.68 0 0 Z " fill="#000000" transform="translate(85,61)"/>
<path d="M0 0 C0.99 0.33 1.98 0.66 3 1 C2.01 1.33 1.02 1.66 0 2 C0 1.34 0 0.68 0 0 Z " fill="#000000" transform="translate(89,54)"/>
<path d="M0 0 C0.66 0 1.32 0 2 0 C1.67 0.99 1.34 1.98 1 3 C0.67 2.01 0.34 1.02 0 0 Z " fill="#000000" transform="translate(71,54)"/>
<path d="M0 0 C0.66 0 1.32 0 2 0 C2 0.66 2 1.32 2 2 C1.01 1.67 0.02 1.34 -1 1 C-0.67 0.67 -0.34 0.34 0 0 Z " fill="#000000" transform="translate(33,54)"/>
<path d="M0 0 C0.66 0.33 1.32 0.66 2 1 C1.01 1.66 0.02 2.32 -1 3 C-0.67 2.01 -0.34 1.02 0 0 Z " fill="#000000" transform="translate(30,54)"/>
<path d="M0 0 C0.99 0 1.98 0 3 0 C3 0.66 3 1.32 3 2 C2.01 1.67 1.02 1.34 0 1 C0 0.67 0 0.34 0 0 Z " fill="#000000" transform="translate(25,54)"/>
<path d="M0 0 C0.99 0.495 0.99 0.495 2 1 C2 1.66 2 2.32 2 3 C1.34 3 0.68 3 0 3 C0 2.01 0 1.02 0 0 Z " fill="#000000" transform="translate(22,53)"/>
<path d="M0 0 C1.32 0.33 2.64 0.66 4 1 C3.01 1.495 3.01 1.495 2 2 C1.34 1.34 0.68 0.68 0 0 Z " fill="#000000" transform="translate(0,54)"/>
<path d="M0 0 C0.99 0.33 1.98 0.66 3 1 C2.01 1.33 1.02 1.66 0 2 C0 1.34 0 0.68 0 0 Z " fill="#000000" transform="translate(78,47)"/>
<path d="M0 0 C1.32 0.33 2.64 0.66 4 1 C3.01 1.495 3.01 1.495 2 2 C1.34 1.34 0.68 0.68 0 0 Z " fill="#000000" transform="translate(0,47)"/>
<path d="M0 0 C1.485 0.99 1.485 0.99 3 2 C2.01 2.33 1.02 2.66 0 3 C0 2.01 0 1.02 0 0 Z " fill="#000000" transform="translate(89,43)"/>
<path d="M0 0 C0.99 0.495 0.99 0.495 2 1 C2 1.66 2 2.32 2 3 C1.34 3 0.68 3 0 3 C0 2.01 0 1.02 0 0 Z " fill="#000000" transform="translate(78,43)"/>
<path d="M0 0 C0.66 0.66 1.32 1.32 2 2 C1.01 2 0.02 2 -1 2 C-0.67 1.34 -0.34 0.68 0 0 Z " fill="#000000" transform="translate(30,43)"/>
<path d="M0 0 C0.66 0 1.32 0 2 0 C1.67 0.99 1.34 1.98 1 3 C0.67 2.01 0.34 1.02 0 0 Z " fill="#000000" transform="translate(89,40)"/>
<path d="M0 0 C0.99 0.33 1.98 0.66 3 1 C2.01 1.33 1.02 1.66 0 2 C0 1.34 0 0.68 0 0 Z " fill="#000000" transform="translate(32,40)"/>
<path d="M0 0 C0.99 0.33 1.98 0.66 3 1 C2.01 1.33 1.02 1.66 0 2 C0 1.34 0 0.68 0 0 Z " fill="#000000" transform="translate(0,40)"/>
<path d="M0 0 C0.99 0.33 1.98 0.66 3 1 C2.34 1.66 1.68 2.32 1 3 C0.67 2.01 0.34 1.02 0 0 Z " fill="#000000" transform="translate(92,36)"/>
<path d="M0 0 C0.99 0.495 0.99 0.495 2 1 C2 1.66 2 2.32 2 3 C1.34 3 0.68 3 0 3 C0 2.01 0 1.02 0 0 Z " fill="#000000" transform="translate(82,36)"/>
<path d="M0 0 C0.99 0 1.98 0 3 0 C2.67 0.66 2.34 1.32 2 2 C1.34 2 0.68 2 0 2 C0 1.34 0 0.68 0 0 Z " fill="#000000" transform="translate(7,30)"/>
<path d="M0 0 C0.99 0 1.98 0 3 0 C3 0.66 3 1.32 3 2 C2.01 1.67 1.02 1.34 0 1 C0 0.67 0 0.34 0 0 Z " fill="#000000" transform="translate(15,12)"/>
<path d="M0 0 C0.66 0 1.32 0 2 0 C2 0.66 2 1.32 2 2 C1.01 1.67 0.02 1.34 -1 1 C-0.67 0.67 -0.34 0.34 0 0 Z " fill="#000000" transform="translate(1,12)"/>
<path d="M0 0 C0.99 0.33 1.98 0.66 3 1 C2.01 1.33 1.02 1.66 0 2 C0 1.34 0 0.68 0 0 Z " fill="#000000" transform="translate(64,5)"/>
<path d="M0 0 C0.99 0 1.98 0 3 0 C2.67 0.66 2.34 1.32 2 2 C1.34 2 0.68 2 0 2 C0 1.34 0 0.68 0 0 Z " fill="#000000" transform="translate(32,5)"/>
<path d="M0 0 C0.66 0.66 1.32 1.32 2 2 C1.01 2 0.02 2 -1 2 C-0.67 1.34 -0.34 0.68 0 0 Z " fill="#000000" transform="translate(93,0)"/>
<path d="M0 0 C0.99 0.33 1.98 0.66 3 1 C2.01 1 1.02 1 0 1 C0 0.67 0 0.34 0 0 Z " fill="#000000" transform="translate(32,93)"/>
<path d="M0 0 C0.99 0.33 1.98 0.66 3 1 C2.01 1 1.02 1 0 1 C0 0.67 0 0.34 0 0 Z " fill="#000000" transform="translate(25,93)"/>
<path d="M0 0 C0 3 0 3 0 3 Z " fill="#000000" transform="translate(19,92)"/>
<path d="M0 0 C0.99 0.33 1.98 0.66 3 1 C2.01 1 1.02 1 0 1 C0 0.67 0 0.34 0 0 Z " fill="#000000" transform="translate(7,93)"/>
<path d="M0 0 C0.99 0 1.98 0 3 0 C2.67 0.66 2.34 1.32 2 2 C1.34 1.34 0.68 0.68 0 0 Z " fill="#000000" transform="translate(11,89)"/>
<path d="M0 0 C0.66 0.33 1.32 0.66 2 1 C1.01 1 0.02 1 -1 1 C-0.67 0.67 -0.34 0.34 0 0 Z " fill="#000000" transform="translate(2,89)"/>
<path d="M0 0 C0.99 0.33 1.98 0.66 3 1 C2.01 1.33 1.02 1.66 0 2 C0 1.34 0 0.68 0 0 Z " fill="#000000" transform="translate(89,86)"/>
<path d="M0 0 C0.99 0.33 1.98 0.66 3 1 C2.01 1 1.02 1 0 1 C0 0.67 0 0.34 0 0 Z " fill="#000000" transform="translate(74,86)"/>
<path d="M0 0 C0.99 0.33 1.98 0.66 3 1 C2.01 1 1.02 1 0 1 C0 0.67 0 0.34 0 0 Z " fill="#000000" transform="translate(11,86)"/>
<path d="M0 0 C0 3 0 3 0 3 Z " fill="#000000" transform="translate(20,78)"/>
<path d="M0 0 C0.99 0.33 1.98 0.66 3 1 C2.01 1 1.02 1 0 1 C0 0.67 0 0.34 0 0 Z " fill="#000000" transform="translate(92,78)"/>
<path d="M0 0 C0.66 0.33 1.32 0.66 2 1 C1.01 1 0.02 1 -1 1 C-0.67 0.67 -0.34 0.34 0 0 Z " fill="#000000" transform="translate(12,78)"/>
<path d="M0 0 C4 1 4 1 4 1 Z " fill="#000000" transform="translate(0,75)"/>
<path d="M0 0 C0.99 0.33 1.98 0.66 3 1 C2.01 1.33 1.02 1.66 0 2 C0 1.34 0 0.68 0 0 Z " fill="#000000" transform="translate(22,72)"/>
<path d="M0 0 C0.99 0.33 1.98 0.66 3 1 C2.01 1 1.02 1 0 1 C0 0.67 0 0.34 0 0 Z " fill="#000000" transform="translate(85,58)"/>
<path d="M0 0 C0.99 0.33 1.98 0.66 3 1 C2.01 1 1.02 1 0 1 C0 0.67 0 0.34 0 0 Z " fill="#000000" transform="translate(11,58)"/>
<path d="M0 0 C0.66 0 1.32 0 2 0 C2 0.66 2 1.32 2 2 C1.34 2 0.68 2 0 2 C0 1.34 0 0.68 0 0 Z " fill="#000000" transform="translate(82,54)"/>
<path d="M0 0 C0.99 0.33 1.98 0.66 3 1 C2.01 1 1.02 1 0 1 C0 0.67 0 0.34 0 0 Z " fill="#000000" transform="translate(67,54)"/>
<path d="M0 0 C0.66 0 1.32 0 2 0 C2 0.66 2 1.32 2 2 C1.34 2 0.68 2 0 2 C0 1.34 0 0.68 0 0 Z " fill="#000000" transform="translate(22,50)"/>
<path d="M0 0 C0.99 0.33 1.98 0.66 3 1 C2.01 1 1.02 1 0 1 C0 0.67 0 0.34 0 0 Z " fill="#000000" transform="translate(92,47)"/>
<path d="M0 0 C0.99 0.33 1.98 0.66 3 1 C2.01 1 1.02 1 0 1 C0 0.67 0 0.34 0 0 Z " fill="#000000" transform="translate(74,47)"/>
<path d="M0 0 C0.66 0 1.32 0 2 0 C2 0.66 2 1.32 2 2 C1.34 2 0.68 2 0 2 C0 1.34 0 0.68 0 0 Z " fill="#000000" transform="translate(22,47)"/>
<path d="M0 0 C0.66 0.33 1.32 0.66 2 1 C1.01 1 0.02 1 -1 1 C-0.67 0.67 -0.34 0.34 0 0 Z " fill="#000000" transform="translate(75,44)"/>
<path d="M0 0 C0.99 0 1.98 0 3 0 C2.67 0.66 2.34 1.32 2 2 C1.34 1.34 0.68 0.68 0 0 Z " fill="#000000" transform="translate(67,44)"/>
<path d="M0 0 C0.99 0.33 1.98 0.66 3 1 C2.01 1 1.02 1 0 1 C0 0.67 0 0.34 0 0 Z " fill="#000000" transform="translate(53,44)"/>
<path d="M0 0 C0.66 0.66 1.32 1.32 2 2 C1.01 2.495 1.01 2.495 0 3 C0 2.01 0 1.02 0 0 Z " fill="#000000" transform="translate(22,43)"/>
<path d="M0 0 C0.66 0 1.32 0 2 0 C2 0.66 2 1.32 2 2 C1.34 2 0.68 2 0 2 C0 1.34 0 0.68 0 0 Z " fill="#000000" transform="translate(92,40)"/>
<path d="M0 0 C0.99 0.495 0.99 0.495 2 1 C1.34 1.66 0.68 2.32 0 3 C0 2.01 0 1.02 0 0 Z " fill="#000000" transform="translate(89,36)"/>
<path d="M0 0 C1.485 0.99 1.485 0.99 3 2 C2.01 2 1.02 2 0 2 C0 1.34 0 0.68 0 0 Z " fill="#000000" transform="translate(85,29)"/>
<path d="M0 0 C0.99 0.495 0.99 0.495 2 1 C1.67 1.66 1.34 2.32 1 3 C0.67 2.01 0.34 1.02 0 0 Z " fill="#000000" transform="translate(78,29)"/>
<path d="M0 0 C0.99 0 1.98 0 3 0 C2.67 0.66 2.34 1.32 2 2 C1.34 1.34 0.68 0.68 0 0 Z " fill="#000000" transform="translate(11,30)"/>
<path d="M0 0 C0.99 0.33 1.98 0.66 3 1 C2.01 1 1.02 1 0 1 C0 0.67 0 0.34 0 0 Z " fill="#000000" transform="translate(92,26)"/>
<path d="M0 0 C0.99 0.33 1.98 0.66 3 1 C2.01 1 1.02 1 0 1 C0 0.67 0 0.34 0 0 Z " fill="#000000" transform="translate(0,19)"/>
<path d="M0 0 C0.99 0.33 1.98 0.66 3 1 C2.01 1 1.02 1 0 1 C0 0.67 0 0.34 0 0 Z " fill="#000000" transform="translate(85,12)"/>
<path d="M0 0 C0.66 0 1.32 0 2 0 C2 0.66 2 1.32 2 2 C1.34 2 0.68 2 0 2 C0 1.34 0 0.68 0 0 Z " fill="#000000" transform="translate(12,12)"/>
<path d="M0 0 C0.66 0 1.32 0 2 0 C2 0.66 2 1.32 2 2 C1.34 2 0.68 2 0 2 C0 1.34 0 0.68 0 0 Z " fill="#000000" transform="translate(15,5)"/>
<path d="M0 0 C0.66 0.33 1.32 0.66 2 1 C1.01 1 0.02 1 -1 1 C-0.67 0.67 -0.34 0.34 0 0 Z " fill="#000000" transform="translate(1,5)"/>
<path d="M0 0 C0.99 0.495 0.99 0.495 2 1 C1.01 1.495 1.01 1.495 0 2 C0 1.34 0 0.68 0 0 Z " fill="#000000" transform="translate(61,93)"/>
<path d="M0 0 C0.99 0.495 0.99 0.495 2 1 C1.01 1.495 1.01 1.495 0 2 C0 1.34 0 0.68 0 0 Z " fill="#000000" transform="translate(22,93)"/>
<path d="M0 0 C0.99 0.495 0.99 0.495 2 1 C1.01 1.495 1.01 1.495 0 2 C0 1.34 0 0.68 0 0 Z " fill="#000000" transform="translate(15,93)"/>
<path d="M0 0 C0.99 0.495 0.99 0.495 2 1 C1.01 1.495 1.01 1.495 0 2 C0 1.34 0 0.68 0 0 Z " fill="#000000" transform="translate(12,93)"/>
<path d="M0 0 C0.66 0 1.32 0 2 0 C1.67 0.66 1.34 1.32 1 2 C0.67 1.34 0.34 0.68 0 0 Z " fill="#000000" transform="translate(4,93)"/>
<path d="M0 0 C3 1 3 1 3 1 Z " fill="#000000" transform="translate(0,93)"/>
<path d="M0 0 C0.99 0.495 0.99 0.495 2 1 C1.01 1.495 1.01 1.495 0 2 C0 1.34 0 0.68 0 0 Z " fill="#000000" transform="translate(19,89)"/>
<path d="M0 0 C0.99 0.495 0.99 0.495 2 1 C1.01 1.495 1.01 1.495 0 2 C0 1.34 0 0.68 0 0 Z " fill="#000000" transform="translate(93,86)"/>
<path d="M0 0 C3 1 3 1 3 1 Z " fill="#000000" transform="translate(0,72)"/>
<path d="M0 0 C0.99 0.495 0.99 0.495 2 1 C1.01 1.495 1.01 1.495 0 2 C0 1.34 0 0.68 0 0 Z " fill="#000000" transform="translate(32,64)"/>
<path d="M0 0 C0.99 0.495 0.99 0.495 2 1 C1.01 1.495 1.01 1.495 0 2 C0 1.34 0 0.68 0 0 Z " fill="#000000" transform="translate(82,58)"/>
<path d="M0 0 C0.66 0 1.32 0 2 0 C1.67 0.66 1.34 1.32 1 2 C0.67 1.34 0.34 0.68 0 0 Z " fill="#000000" transform="translate(85,54)"/>
<path d="M0 0 C0.66 0 1.32 0 2 0 C1.67 0.66 1.34 1.32 1 2 C0.67 1.34 0.34 0.68 0 0 Z " fill="#000000" transform="translate(57,44)"/>
<path d="M0 0 C0.33 0.66 0.66 1.32 1 2 C0.34 1.67 -0.32 1.34 -1 1 C-0.67 0.67 -0.34 0.34 0 0 Z " fill="#000000" transform="translate(65,43)"/>
<path d="M0 0 C0.99 0.495 0.99 0.495 2 1 C1.01 1.495 1.01 1.495 0 2 C0 1.34 0 0.68 0 0 Z " fill="#000000" transform="translate(12,33)"/>
<path d="M0 0 C3 1 3 1 3 1 Z " fill="#000000" transform="translate(92,30)"/>
<path d="M0 0 C0.66 0 1.32 0 2 0 C1.67 0.66 1.34 1.32 1 2 C0.67 1.34 0.34 0.68 0 0 Z " fill="#000000" transform="translate(89,30)"/>
<path d="M0 0 C0.99 0.495 0.99 0.495 2 1 C1.01 1.495 1.01 1.495 0 2 C0 1.34 0 0.68 0 0 Z " fill="#000000" transform="translate(75,30)"/>
<path d="M0 0 C0.66 0.66 1.32 1.32 2 2 C1.34 2 0.68 2 0 2 C0 1.34 0 0.68 0 0 Z " fill="#000000" transform="translate(71,29)"/>
<path d="M0 0 C0.99 0.495 0.99 0.495 2 1 C1.01 1.495 1.01 1.495 0 2 C0 1.34 0 0.68 0 0 Z " fill="#000000" transform="translate(19,30)"/>
<path d="M0 0 C0.99 0.495 0.99 0.495 2 1 C1.01 1.495 1.01 1.495 0 2 C0 1.34 0 0.68 0 0 Z " fill="#000000" transform="translate(15,30)"/>
<path d="M0 0 C0.66 0.66 1.32 1.32 2 2 C1.34 2 0.68 2 0 2 C0 1.34 0 0.68 0 0 Z " fill="#000000" transform="translate(5,19)"/>
<path d="M0 0 C3 1 3 1 3 1 Z " fill="#000000" transform="translate(92,12)"/>
<path d="M0 0 C0.99 0.495 0.99 0.495 2 1 C1.01 1.495 1.01 1.495 0 2 C0 1.34 0 0.68 0 0 Z " fill="#000000" transform="translate(89,12)"/>
<path d="M0 0 C3 1 3 1 3 1 Z " fill="#000000" transform="translate(71,12)"/>
<path d="M0 0 C0.99 0.495 0.99 0.495 2 1 C1.01 1.495 1.01 1.495 0 2 C0 1.34 0 0.68 0 0 Z " fill="#000000" transform="translate(68,12)"/>
<path d="M0 0 C0.66 0 1.32 0 2 0 C1.67 0.66 1.34 1.32 1 2 C0.67 1.34 0.34 0.68 0 0 Z " fill="#000000" transform="translate(25,12)"/>
<path d="M0 0 C0.99 0.495 0.99 0.495 2 1 C1.01 1.495 1.01 1.495 0 2 C0 1.34 0 0.68 0 0 Z " fill="#000000" transform="translate(29,5)"/>
<path d="M0 0 C2 1 2 1 2 1 Z " fill="#000000" transform="translate(8,86)"/>
<path d="M0 0 C2 1 2 1 2 1 Z " fill="#000000" transform="translate(4,72)"/>
<path d="M0 0 C2 1 2 1 2 1 Z " fill="#000000" transform="translate(93,44)"/>
<path d="M0 0 C2 1 2 1 2 1 Z " fill="#000000" transform="translate(15,44)"/>
<path d="M0 0 C2 1 2 1 2 1 Z " fill="#000000" transform="translate(68,33)"/>
<path d="M0 0 C2 1 2 1 2 1 Z " fill="#000000" transform="translate(15,33)"/>
<path d="M0 0 C2 1 2 1 2 1 Z " fill="#000000" transform="translate(0,30)"/>
<path d="M0 0 C2 1 2 1 2 1 Z " fill="#000000" transform="translate(82,12)"/>
<path d="M0 0 C2 1 2 1 2 1 Z " fill="#000000" transform="translate(18,5)"/>
<path d="" fill="#000000" transform="translate(0,0)"/>
<path d="" fill="#000000" transform="translate(0,0)"/>
<path d="" fill="#000000" transform="translate(0,0)"/>
<path d="" fill="#000000" transform="translate(0,0)"/>
<path d="" fill="#000000" transform="translate(0,0)"/>
<path d="" fill="#000000" transform="translate(0,0)"/>
<path d="" fill="#000000" transform="translate(0,0)"/>
<path d="" fill="#000000" transform="translate(0,0)"/>
<path d="" fill="#000000" transform="translate(0,0)"/>
<path d="" fill="#000000" transform="translate(0,0)"/>
<path d="" fill="#000000" transform="translate(0,0)"/>
<path d="" fill="#000000" transform="translate(0,0)"/>
<path d="" fill="#000000" transform="translate(0,0)"/>
<path d="" fill="#000000" transform="translate(0,0)"/>
<path d="" fill="#000000" transform="translate(0,0)"/>
<path d="" fill="#000000" transform="translate(0,0)"/>
<path d="" fill="#000000" transform="translate(0,0)"/>
<path d="" fill="#000000" transform="translate(0,0)"/>
<path d="" fill="#000000" transform="translate(0,0)"/>
<path d="" fill="#000000" transform="translate(0,0)"/>
<path d="" fill="#000000" transform="translate(0,0)"/>
<path d="" fill="#000000" transform="translate(0,0)"/>
<path d="" fill="#000000" transform="translate(0,0)"/>
<path d="" fill="#000000" transform="translate(0,0)"/>
<path d="" fill="#000000" transform="translate(0,0)"/>
<path d="" fill="#000000" transform="translate(0,0)"/>
<path d="" fill="#000000" transform="translate(0,0)"/>
<path d="" fill="#000000" transform="translate(0,0)"/>
<path d="" fill="#000000" transform="translate(0,0)"/>
<path d="" fill="#000000" transform="translate(0,0)"/>
<path d="" fill="#000000" transform="translate(0,0)"/>
<path d="" fill="#000000" transform="translate(0,0)"/>
<path d="" fill="#000000" transform="translate(0,0)"/>
<path d="" fill="#000000" transform="translate(0,0)"/>
<path d="" fill="#000000" transform="translate(0,0)"/>
<path d="" fill="#000000" transform="translate(0,0)"/>
<path d="" fill="#000000" transform="translate(0,0)"/>
<path d="" fill="#000000" transform="translate(0,0)"/>
<path d="" fill="#000000" transform="translate(0,0)"/>
<path d="" fill="#000000" transform="translate(0,0)"/>
<path d="" fill="#000000" transform="translate(0,0)"/>
<path d="" fill="#000000" transform="translate(0,0)"/>
<path d="" fill="#000000" transform="translate(0,0)"/>
<path d="" fill="#000000" transform="translate(0,0)"/>
<path d="" fill="#000000" transform="translate(0,0)"/>
</svg>
